<?xml version="1.0" encoding="utf-8"?>
<!-- Generator: Adobe Illustrator 16.0.3, SVG Export Plug-In . SVG Version: 6.00 Build 0)  -->
<!DOCTYPE svg PUBLIC "-//W3C//DTD SVG 1.1//EN" "http://www.w3.org/Graphics/SVG/1.1/DTD/svg11.dtd">
<svg version="1.1" xmlns="http://www.w3.org/2000/svg" xmlns:xlink="http://www.w3.org/1999/xlink" x="0px" y="0px" width="104px"
	 height="205px" viewBox="0 0 104 205" enable-background="new 0 0 104 205" xml:space="preserve">
<g id="Layer_12">
	<g>
		<polygon fill="none" points="94.5,26.75 24,26.75 24,41.25 9.5,41.25 9.5,178.5 94.5,178.5 		"/>
		<g>
			<path d="M14,0C6.3,0,0,6.3,0,14v177c0,7.7,6.3,14,14,14h76c7.7,0,14-6.3,14-14V14c0-7.7-6.3-14-14-14H14z M102.861,174.333
				c0,7.7-6.3,14-14,14H15.139c-7.7,0-14-6.3-14-14V28.399c0-7.7,6.3-14,14-14h73.723c7.7,0,14,6.3,14,14V174.333z"/>
		</g>
		<path fill="#232323" d="M1.139,188.333h101.723V14.399H1.139V188.333z M9.5,41.25v-14.5H24h70.5V178.5h-85V41.25z"/>
	</g>
</g>
<g id="Speaker_1_">
	<g id="Speaker_outline">
		<g>
			<path fill="#1D1D1D" d="M64.146,10.61H39.854c-1.048,0-1.898,0.849-1.898,1.895v0.379h28.088v-0.379
				C66.044,11.459,65.194,10.61,64.146,10.61z"/>
		</g>
	</g>
	<g id="Speaker_background_2_" enable-background="new    ">
		<defs>
			<path id="SVGID_1_" enable-background="new    " d="M64.146,10.989H39.854c-0.838,0-1.518,0.679-1.518,1.516v0.379h27.328v-0.379
				C65.664,11.668,64.984,10.989,64.146,10.989z"/>
		</defs>
		<clipPath id="SVGID_2_">
			<use xlink:href="#SVGID_1_"  overflow="visible"/>
		</clipPath>
		
			<image overflow="visible" clip-path="url(#SVGID_2_)" width="104" height="205" id="Speaker_background_xA0_Image" xlink:href="F1280876.png" >
		</image>
	</g>
	<g id="Dots">
		<g>
			<path fill-rule="evenodd" clip-rule="evenodd" fill="#555555" d="M39.095,11.747h0.38v-0.379h-0.38V11.747z M39.854,11.747h0.379
				v-0.379h-0.379V11.747z M40.613,11.747h0.379v-0.379h-0.379V11.747z M41.372,11.747h0.38v-0.379h-0.38V11.747z M42.131,11.747
				h0.379v-0.379h-0.379V11.747z M42.891,11.747h0.379v-0.379h-0.379V11.747z M43.649,11.747h0.38v-0.379h-0.38V11.747z
				 M44.409,11.747h0.379v-0.379h-0.379V11.747z M45.168,11.747h0.379v-0.379h-0.379V11.747z M45.927,11.747h0.38v-0.379h-0.38
				V11.747z M46.686,11.747h0.38v-0.379h-0.38V11.747z M47.445,11.747h0.379v-0.379h-0.379V11.747z M48.205,11.747h0.379v-0.379
				h-0.379V11.747z M48.963,11.747h0.38v-0.379h-0.38V11.747z M49.723,11.747h0.379v-0.379h-0.379V11.747z M50.482,11.747h0.379
				v-0.379h-0.379V11.747z M51.241,11.747h0.38v-0.379h-0.38V11.747z M52,11.747h0.379v-0.379H52V11.747z M52.759,11.747h0.379
				v-0.379h-0.379V11.747z M53.518,11.747h0.381v-0.379h-0.381V11.747z M54.277,11.747h0.379v-0.379h-0.379V11.747z M55.037,11.747
				h0.379v-0.379h-0.379V11.747z M55.795,11.747h0.381v-0.379h-0.381V11.747z M56.555,11.747h0.379v-0.379h-0.379V11.747z
				 M57.314,11.747h0.379v-0.379h-0.379V11.747z M58.072,11.747h0.381v-0.379h-0.381V11.747z M58.832,11.747h0.38v-0.379h-0.38
				V11.747z M59.592,11.747h0.379v-0.379h-0.379V11.747z M60.351,11.747h0.38v-0.379h-0.38V11.747z M61.109,11.747h0.38v-0.379
				h-0.38V11.747z M61.869,11.747h0.379v-0.379h-0.379V11.747z M62.628,11.747h0.38v-0.379h-0.38V11.747z M63.387,11.747h0.38
				v-0.379h-0.38V11.747z M64.146,11.368v0.379h0.379v-0.379H64.146z"/>
		</g>
	</g>
	<g id="Dots_1_">
		<g>
			<path fill-rule="evenodd" clip-rule="evenodd" fill="#666666" d="M39.095,12.884h0.38v-0.379h-0.38V12.884z M39.854,12.884h0.379
				v-0.379h-0.379V12.884z M40.613,12.884h0.379v-0.379h-0.379V12.884z M41.372,12.884h0.38v-0.379h-0.38V12.884z M42.131,12.884
				h0.379v-0.379h-0.379V12.884z M42.891,12.884h0.379v-0.379h-0.379V12.884z M43.649,12.884h0.38v-0.379h-0.38V12.884z
				 M44.409,12.884h0.379v-0.379h-0.379V12.884z M45.168,12.884h0.379v-0.379h-0.379V12.884z M45.927,12.884h0.38v-0.379h-0.38
				V12.884z M46.686,12.884h0.38v-0.379h-0.38V12.884z M47.445,12.884h0.379v-0.379h-0.379V12.884z M48.205,12.884h0.379v-0.379
				h-0.379V12.884z M48.963,12.884h0.38v-0.379h-0.38V12.884z M49.723,12.884h0.379v-0.379h-0.379V12.884z M50.482,12.884h0.379
				v-0.379h-0.379V12.884z M51.241,12.884h0.38v-0.379h-0.38V12.884z M52,12.884h0.379v-0.379H52V12.884z M52.759,12.884h0.379
				v-0.379h-0.379V12.884z M53.518,12.884h0.381v-0.379h-0.381V12.884z M54.277,12.884h0.379v-0.379h-0.379V12.884z M55.037,12.884
				h0.379v-0.379h-0.379V12.884z M55.795,12.884h0.381v-0.379h-0.381V12.884z M56.555,12.884h0.379v-0.379h-0.379V12.884z
				 M57.314,12.884h0.379v-0.379h-0.379V12.884z M58.072,12.884h0.381v-0.379h-0.381V12.884z M58.832,12.884h0.38v-0.379h-0.38
				V12.884z M59.592,12.884h0.379v-0.379h-0.379V12.884z M60.351,12.884h0.38v-0.379h-0.38V12.884z M61.109,12.884h0.38v-0.379
				h-0.38V12.884z M61.869,12.884h0.379v-0.379h-0.379V12.884z M62.628,12.884h0.38v-0.379h-0.38V12.884z M63.387,12.884h0.38
				v-0.379h-0.38V12.884z M64.146,12.884h0.379v-0.379h-0.379V12.884z M64.905,12.505v0.379h0.38v-0.379H64.905z"/>
		</g>
	</g>
	<g id="Dots_2_">
		<g>
			<path fill-rule="evenodd" clip-rule="evenodd" fill="#727272" d="M38.715,12.505h0.379v-0.379h-0.379V12.505z M39.475,12.505
				h0.379v-0.379h-0.379V12.505z M40.233,12.505h0.38v-0.379h-0.38V12.505z M40.993,12.505h0.379v-0.379h-0.379V12.505z
				 M41.752,12.505h0.379v-0.379h-0.379V12.505z M42.511,12.505h0.38v-0.379h-0.38V12.505z M43.27,12.505h0.379v-0.379H43.27V12.505
				z M44.029,12.505h0.379v-0.379h-0.379V12.505z M44.788,12.505h0.38v-0.379h-0.38V12.505z M45.547,12.505h0.379v-0.379h-0.379
				V12.505z M46.307,12.505h0.379v-0.379h-0.379V12.505z M47.066,12.505h0.379v-0.379h-0.379V12.505z M47.825,12.505h0.38v-0.379
				h-0.38V12.505z M48.584,12.505h0.379v-0.379h-0.379V12.505z M49.343,12.505h0.379v-0.379h-0.379V12.505z M50.102,12.505h0.38
				v-0.379h-0.38V12.505z M50.861,12.505h0.379v-0.379h-0.379V12.505z M51.621,12.505H52v-0.379h-0.379V12.505z M52.379,12.505h0.38
				v-0.379h-0.38V12.505z M53.139,12.505h0.379v-0.379h-0.379V12.505z M53.898,12.505h0.379v-0.379h-0.379V12.505z M54.656,12.505
				h0.381v-0.379h-0.381V12.505z M55.416,12.505h0.379v-0.379h-0.379V12.505z M56.176,12.505h0.379v-0.379h-0.379V12.505z
				 M56.934,12.505h0.381v-0.379h-0.381V12.505z M57.693,12.505h0.379v-0.379h-0.379V12.505z M58.453,12.505h0.379v-0.379h-0.379
				V12.505z M59.212,12.505h0.38v-0.379h-0.38V12.505z M59.971,12.505h0.38v-0.379h-0.38V12.505z M60.73,12.505h0.379v-0.379H60.73
				V12.505z M61.489,12.505h0.38v-0.379h-0.38V12.505z M62.248,12.505h0.38v-0.379h-0.38V12.505z M63.008,12.505h0.379v-0.379
				h-0.379V12.505z M63.767,12.505h0.38v-0.379h-0.38V12.505z M64.525,12.505h0.38v-0.379h-0.38V12.505z M65.285,12.126v0.379h0.379
				v-0.379H65.285z"/>
		</g>
	</g>
	<g id="Dots_3_">
		<g>
			<path fill-rule="evenodd" clip-rule="evenodd" fill="#2D2D2D" d="M39.475,11.368h0.379v-0.379h-0.379V11.368z M40.233,11.368
				h0.38v-0.379h-0.38V11.368z M40.993,11.368h0.379v-0.379h-0.379V11.368z M41.752,11.368h0.379v-0.379h-0.379V11.368z
				 M42.511,11.368h0.38v-0.379h-0.38V11.368z M43.27,11.368h0.379v-0.379H43.27V11.368z M44.029,11.368h0.379v-0.379h-0.379V11.368
				z M44.788,11.368h0.38v-0.379h-0.38V11.368z M45.547,11.368h0.379v-0.379h-0.379V11.368z M46.307,11.368h0.379v-0.379h-0.379
				V11.368z M47.066,11.368h0.379v-0.379h-0.379V11.368z M47.825,11.368h0.38v-0.379h-0.38V11.368z M48.584,11.368h0.379v-0.379
				h-0.379V11.368z M49.343,11.368h0.379v-0.379h-0.379V11.368z M50.102,11.368h0.38v-0.379h-0.38V11.368z M50.861,11.368h0.379
				v-0.379h-0.379V11.368z M51.621,11.368H52v-0.379h-0.379V11.368z M52.379,11.368h0.38v-0.379h-0.38V11.368z M53.139,11.368h0.379
				v-0.379h-0.379V11.368z M53.898,11.368h0.379v-0.379h-0.379V11.368z M54.656,11.368h0.381v-0.379h-0.381V11.368z M55.416,11.368
				h0.379v-0.379h-0.379V11.368z M56.176,11.368h0.379v-0.379h-0.379V11.368z M56.934,11.368h0.381v-0.379h-0.381V11.368z
				 M57.693,11.368h0.379v-0.379h-0.379V11.368z M58.453,11.368h0.379v-0.379h-0.379V11.368z M59.212,11.368h0.38v-0.379h-0.38
				V11.368z M59.971,11.368h0.38v-0.379h-0.38V11.368z M60.73,11.368h0.379v-0.379H60.73V11.368z M61.489,11.368h0.38v-0.379h-0.38
				V11.368z M62.248,11.368h0.38v-0.379h-0.38V11.368z M63.008,11.368h0.379v-0.379h-0.379V11.368z M63.767,10.989v0.379h0.38
				v-0.379H63.767z"/>
		</g>
	</g>
</g>
<g id="Accesories_1_">
	<g id="Rounded_Rectangle_1">
		<g>
			<path fill="#262626" d="M53.809,19.705h-3.617c-0.888,0-1.607,0.679-1.607,1.516s0.72,1.516,1.607,1.516h3.617
				c0.888,0,1.607-0.679,1.607-1.516S54.696,19.705,53.809,19.705z"/>
		</g>
	</g>
	<g id="Ellipse_1">
		<g>
			<circle fill="#262626" cx="74.015" cy="19.326" r="1.516"/>
		</g>
	</g>
	<g id="Ellipse_2">
		<g>
			<circle fill="#9B9B9B" cx="74.015" cy="19.326" r="0.379"/>
		</g>
	</g>
	<g id="Ellipse_1_copy">
		<g>
			<circle fill="#2F2F2F" cx="90.715" cy="19.326" r="1.516"/>
		</g>
	</g>
</g>
<g id="Top_divide_line_1_" enable-background="new    ">
	<g id="Top_divide_line">
		<g>
			<rect y="12.505" fill="#1D1D1D" width="104" height="0.758"/>
		</g>
	</g>
</g>
<g id="Bottom_divide_line_1_" enable-background="new    ">
	<g id="Bottom_divide_line">
		<g>
			<polygon fill-rule="evenodd" clip-rule="evenodd" fill="#1D1D1D" points="54.656,189.47 54.656,189.091 49.343,189.091 
				49.343,189.47 0,189.47 0,190.228 104,190.228 104,189.47 			"/>
		</g>
	</g>
</g>
</svg>
