<?xml version="1.0" encoding="utf-8"?>
<!-- Generator: Adobe Illustrator 16.0.3, SVG Export Plug-In . SVG Version: 6.00 Build 0)  -->
<!DOCTYPE svg PUBLIC "-//W3C//DTD SVG 1.1//EN" "http://www.w3.org/Graphics/SVG/1.1/DTD/svg11.dtd">
<svg version="1.1" xmlns="http://www.w3.org/2000/svg" xmlns:xlink="http://www.w3.org/1999/xlink" x="0px" y="0px"
	 width="458.62px" height="590.039px" viewBox="0 0 458.62 590.039" enable-background="new 0 0 458.62 590.039"
	 xml:space="preserve">
<g id="Layer_7">
	<path stroke="#231F20" stroke-miterlimit="10" d="M440.635,0.5H17.985C8.053,0.5,0,8.649,0,18.701v260.882
		c0,10.053,8.053,18.202,17.985,18.202h422.649c9.934,0,17.985-8.149,17.985-18.202V18.701C458.62,8.649,450.568,0.5,440.635,0.5z
		 M427.303,223.798c0,10.521-8.903,19.05-19.883,19.05H51.199c-10.98,0-19.88-8.529-19.88-19.05V57.096
		c0-10.522,8.9-19.052,19.88-19.052H407.42c10.979,0,19.883,8.53,19.883,19.052V223.798z"/>
</g>
<g id="Layer_8">
	<path fill="#E6E6E6" d="M446.708,276.059H12.887c-6.614,0-11.975,5.447-11.975,12.169v289.641c0,6.721,5.361,12.17,11.975,12.17
		h189.814c0.179-1.282,1.269-2.273,2.601-2.273h54.978c1.332,0,2.422,0.991,2.601,2.273h183.828c6.612,0,11.975-5.449,11.975-12.17
		V288.228C458.683,281.506,453.32,276.059,446.708,276.059z"/>
</g>
<g id="Rectangle_1_1_" enable-background="new    ">
	<g id="Rectangle_1">
		<g>
			<rect x="63.913" y="274.215" fill="#1A1A1A" width="326.548" height="11.506"/>
		</g>
	</g>
</g>
<g id="Rounded_Rectangle_4_1_" enable-background="new    ">
	<g id="Rounded_Rectangle_4_2_">
		<g>
			<path fill="#C7C8CA" d="M280.268,516.625H182.6c-2.346,0-4.247,1.898-4.247,4.238v52.994c0,2.34,1.901,4.238,4.247,4.238h97.668
				c2.347,0,4.248-1.898,4.248-4.238v-52.994C284.516,518.523,282.614,516.625,280.268,516.625z"/>
		</g>
	</g>
</g>
<g id="Layer_12">
	<circle fill="#C7C8CA" cx="436.17" cy="295.293" r="5.465"/>
</g>
<g id="Rounded_Rectangle_2_1_" enable-background="new    ">
	<g id="Rounded_Rectangle_2">
		<g>
			<path fill="#D6D6D6" d="M411.909,315.25H46.711c-5.863,0-10.616,4.744-10.616,10.598v165.341c0,5.854,4.753,10.599,10.616,10.599
				h365.198c5.863,0,10.616-4.745,10.616-10.599V325.847C422.525,319.994,417.772,315.25,411.909,315.25z"/>
		</g>
	</g>
</g>
<g id="keyboard_xA0_Image_1_" display="none">
	
		<image display="inline" overflow="visible" width="320" height="133" id="keyboard_xA0_Image_3_" xlink:href="418A91D7.png"  transform="matrix(1.0616 0 0 1.0616 57.3276 336.0034)">
	</image>
</g>
<g id="Layer_9">
	<g id="Layer_10">
		<g>
			<path fill-rule="evenodd" clip-rule="evenodd" d="M80.705,355.163c0,1.65-1.35,3-3,3H60.328c-1.65,0-3-1.35-3-3v-16.159
				c0-1.65,1.35-3,3-3h17.377c1.65,0,3,1.35,3,3V355.163z"/>
		</g>
		<g>
			<path fill-rule="evenodd" clip-rule="evenodd" d="M110.705,355.163c0,1.65-1.35,3-3,3H90.328c-1.65,0-3-1.35-3-3v-16.159
				c0-1.65,1.35-3,3-3h17.377c1.65,0,3,1.35,3,3V355.163z"/>
		</g>
		<g>
			<path fill-rule="evenodd" clip-rule="evenodd" d="M140.705,355.163c0,1.65-1.35,3-3,3h-17.377c-1.65,0-3-1.35-3-3v-16.159
				c0-1.65,1.35-3,3-3h17.377c1.65,0,3,1.35,3,3V355.163z"/>
		</g>
		<g>
			<path fill-rule="evenodd" clip-rule="evenodd" d="M170.705,355.163c0,1.65-1.35,3-3,3h-17.377c-1.65,0-3-1.35-3-3v-16.159
				c0-1.65,1.35-3,3-3h17.377c1.65,0,3,1.35,3,3V355.163z"/>
		</g>
		<g>
			<path fill-rule="evenodd" clip-rule="evenodd" d="M199.705,355.163c0,1.65-1.35,3-3,3h-17.377c-1.65,0-3-1.35-3-3v-16.159
				c0-1.65,1.35-3,3-3h17.377c1.65,0,3,1.35,3,3V355.163z"/>
		</g>
		<g>
			<path fill-rule="evenodd" clip-rule="evenodd" d="M229.705,355.163c0,1.65-1.35,3-3,3h-17.377c-1.65,0-3-1.35-3-3v-16.159
				c0-1.65,1.35-3,3-3h17.377c1.65,0,3,1.35,3,3V355.163z"/>
		</g>
		<g>
			<path fill-rule="evenodd" clip-rule="evenodd" d="M261.705,355.163c0,1.65-1.35,3-3,3h-17.377c-1.65,0-3-1.35-3-3v-16.159
				c0-1.65,1.35-3,3-3h17.377c1.65,0,3,1.35,3,3V355.163z"/>
		</g>
		<g>
			<path fill-rule="evenodd" clip-rule="evenodd" d="M292.705,355.163c0,1.65-1.35,3-3,3h-17.377c-1.65,0-3-1.35-3-3v-16.159
				c0-1.65,1.35-3,3-3h17.377c1.65,0,3,1.35,3,3V355.163z"/>
		</g>
		<g>
			<path fill-rule="evenodd" clip-rule="evenodd" d="M324.705,355.163c0,1.65-1.35,3-3,3h-17.377c-1.65,0-3-1.35-3-3v-16.159
				c0-1.65,1.35-3,3-3h17.377c1.65,0,3,1.35,3,3V355.163z"/>
		</g>
		<g>
			<path fill-rule="evenodd" clip-rule="evenodd" d="M356.705,355.163c0,1.65-1.35,3-3,3h-17.377c-1.65,0-3-1.35-3-3v-16.159
				c0-1.65,1.35-3,3-3h17.377c1.65,0,3,1.35,3,3V355.163z"/>
		</g>
		<g>
			<path fill-rule="evenodd" clip-rule="evenodd" d="M397.047,355.163c0,1.65-1.35,3-3,3h-27.719c-1.65,0-3-1.35-3-3v-16.159
				c0-1.65,1.35-3,3-3h27.719c1.65,0,3,1.35,3,3V355.163z"/>
		</g>
		<g>
			<path fill-rule="evenodd" clip-rule="evenodd" d="M397.047,384.163c0,1.65-1.35,3-3,3h-41.008c-1.65,0-3-1.35-3-3v-16.159
				c0-1.65,1.35-3,3-3h41.008c1.65,0,3,1.35,3,3V384.163z"/>
		</g>
		<g>
			<path fill-rule="evenodd" clip-rule="evenodd" d="M345.543,384.163c0,1.65-1.35,3-3,3h-17.504c-1.65,0-3-1.35-3-3v-16.159
				c0-1.65,1.35-3,3-3h17.504c1.65,0,3,1.35,3,3V384.163z"/>
		</g>
		<g>
			<path fill-rule="evenodd" clip-rule="evenodd" d="M315.543,384.163c0,1.65-1.35,3-3,3h-17.504c-1.65,0-3-1.35-3-3v-16.159
				c0-1.65,1.35-3,3-3h17.504c1.65,0,3,1.35,3,3V384.163z"/>
		</g>
		<g>
			<path fill-rule="evenodd" clip-rule="evenodd" d="M287.543,384.163c0,1.65-1.35,3-3,3h-17.504c-1.65,0-3-1.35-3-3v-16.159
				c0-1.65,1.35-3,3-3h17.504c1.65,0,3,1.35,3,3V384.163z"/>
		</g>
		<g>
			<path fill-rule="evenodd" clip-rule="evenodd" d="M259.543,384.163c0,1.65-1.35,3-3,3h-17.504c-1.65,0-3-1.35-3-3v-16.159
				c0-1.65,1.35-3,3-3h17.504c1.65,0,3,1.35,3,3V384.163z"/>
		</g>
		<g>
			<path fill-rule="evenodd" clip-rule="evenodd" d="M233.543,384.163c0,1.65-1.35,3-3,3h-17.504c-1.65,0-3-1.35-3-3v-16.159
				c0-1.65,1.35-3,3-3h17.504c1.65,0,3,1.35,3,3V384.163z"/>
		</g>
		<g>
			<path fill-rule="evenodd" clip-rule="evenodd" d="M205.543,384.163c0,1.65-1.35,3-3,3h-17.504c-1.65,0-3-1.35-3-3v-16.159
				c0-1.65,1.35-3,3-3h17.504c1.65,0,3,1.35,3,3V384.163z"/>
		</g>
		<g>
			<path fill-rule="evenodd" clip-rule="evenodd" d="M175.543,384.163c0,1.65-1.35,3-3,3h-17.504c-1.65,0-3-1.35-3-3v-16.159
				c0-1.65,1.35-3,3-3h17.504c1.65,0,3,1.35,3,3V384.163z"/>
		</g>
		<g>
			<path fill-rule="evenodd" clip-rule="evenodd" d="M149.543,384.163c0,1.65-1.35,3-3,3h-17.504c-1.65,0-3-1.35-3-3v-16.159
				c0-1.65,1.35-3,3-3h17.504c1.65,0,3,1.35,3,3V384.163z"/>
		</g>
		<g>
			<path fill-rule="evenodd" clip-rule="evenodd" d="M121.543,384.163c0,1.65-1.35,3-3,3h-17.504c-1.65,0-3-1.35-3-3v-16.159
				c0-1.65,1.35-3,3-3h17.504c1.65,0,3,1.35,3,3V384.163z"/>
		</g>
		<g>
			<path fill-rule="evenodd" clip-rule="evenodd" d="M351.543,415.163c0,1.65-1.35,3-3,3h-17.504c-1.65,0-3-1.35-3-3v-16.159
				c0-1.65,1.35-3,3-3h17.504c1.65,0,3,1.35,3,3V415.163z"/>
		</g>
		<g>
			<path fill-rule="evenodd" clip-rule="evenodd" d="M397.047,443.163c0,1.65-1.35,3-3,3h-45.504c-1.65,0-3-1.35-3-3v-16.159
				c0-1.65,1.35-3,3-3h45.504c1.65,0,3,1.35,3,3V443.163z"/>
		</g>
		<g>
			<path fill-rule="evenodd" clip-rule="evenodd" d="M397.047,442.163c0,1.65-1.35,3-3,3h-45.504c-1.65,0-3-1.35-3-3v-16.159
				c0-1.65,1.35-3,3-3h45.504c1.65,0,3,1.35,3,3V442.163z"/>
		</g>
		<g>
			<path fill-rule="evenodd" clip-rule="evenodd" d="M397.047,414.681c0,1.65-1.35,3-3,3h-35.342c-1.65,0-3-1.35-3-3v-16.159
				c0-1.65,1.35-3,3-3h35.342c1.65,0,3,1.35,3,3V414.681z"/>
		</g>
		<g>
			<path fill-rule="evenodd" clip-rule="evenodd" d="M287.543,474.199c0,1.65-1.35,3-3,3H171.724c-1.65,0-3-1.35-3-3V458.04
				c0-1.65,1.35-3,3-3h112.819c1.65,0,3,1.35,3,3V474.199z"/>
		</g>
		<g>
			<path fill-rule="evenodd" clip-rule="evenodd" d="M321.543,415.163c0,1.65-1.35,3-3,3h-17.504c-1.65,0-3-1.35-3-3v-16.159
				c0-1.65,1.35-3,3-3h17.504c1.65,0,3,1.35,3,3V415.163z"/>
		</g>
		<g>
			<path fill-rule="evenodd" clip-rule="evenodd" d="M293.543,415.163c0,1.65-1.35,3-3,3h-17.504c-1.65,0-3-1.35-3-3v-16.159
				c0-1.65,1.35-3,3-3h17.504c1.65,0,3,1.35,3,3V415.163z"/>
		</g>
		<g>
			<path fill-rule="evenodd" clip-rule="evenodd" d="M265.543,415.163c0,1.65-1.35,3-3,3h-17.504c-1.65,0-3-1.35-3-3v-16.159
				c0-1.65,1.35-3,3-3h17.504c1.65,0,3,1.35,3,3V415.163z"/>
		</g>
		<g>
			<path fill-rule="evenodd" clip-rule="evenodd" d="M239.543,415.163c0,1.65-1.35,3-3,3h-17.504c-1.65,0-3-1.35-3-3v-16.159
				c0-1.65,1.35-3,3-3h17.504c1.65,0,3,1.35,3,3V415.163z"/>
		</g>
		<g>
			<path fill-rule="evenodd" clip-rule="evenodd" d="M228.795,444.163c0,1.65-1.35,3-3,3h-17.504c-1.65,0-3-1.35-3-3v-16.159
				c0-1.65,1.35-3,3-3h17.504c1.65,0,3,1.35,3,3V444.163z"/>
		</g>
		<g>
			<path fill-rule="evenodd" clip-rule="evenodd" d="M198.795,444.163c0,1.65-1.35,3-3,3h-17.504c-1.65,0-3-1.35-3-3v-16.159
				c0-1.65,1.35-3,3-3h17.504c1.65,0,3,1.35,3,3V444.163z"/>
		</g>
		<g>
			<path fill-rule="evenodd" clip-rule="evenodd" d="M172.795,444.163c0,1.65-1.35,3-3,3h-17.504c-1.65,0-3-1.35-3-3v-16.159
				c0-1.65,1.35-3,3-3h17.504c1.65,0,3,1.35,3,3V444.163z"/>
		</g>
		<g>
			<path fill-rule="evenodd" clip-rule="evenodd" d="M145.795,444.163c0,1.65-1.35,3-3,3h-17.504c-1.65,0-3-1.35-3-3v-16.159
				c0-1.65,1.35-3,3-3h17.504c1.65,0,3,1.35,3,3V444.163z"/>
		</g>
		<g>
			<path fill-rule="evenodd" clip-rule="evenodd" d="M212.268,415.163c0,1.65-1.35,3-3,3h-17.504c-1.65,0-3-1.35-3-3v-16.159
				c0-1.65,1.35-3,3-3h17.504c1.65,0,3,1.35,3,3V415.163z"/>
		</g>
		<g>
			<path fill-rule="evenodd" clip-rule="evenodd" d="M182.268,415.163c0,1.65-1.35,3-3,3h-17.504c-1.65,0-3-1.35-3-3v-16.159
				c0-1.65,1.35-3,3-3h17.504c1.65,0,3,1.35,3,3V415.163z"/>
		</g>
		<g>
			<path fill-rule="evenodd" clip-rule="evenodd" d="M156.268,415.163c0,1.65-1.35,3-3,3h-17.504c-1.65,0-3-1.35-3-3v-16.159
				c0-1.65,1.35-3,3-3h17.504c1.65,0,3,1.35,3,3V415.163z"/>
		</g>
		<g>
			<path fill-rule="evenodd" clip-rule="evenodd" d="M129.268,415.163c0,1.65-1.35,3-3,3h-17.504c-1.65,0-3-1.35-3-3v-16.159
				c0-1.65,1.35-3,3-3h17.504c1.65,0,3,1.35,3,3V415.163z"/>
		</g>
		<g>
			<path fill-rule="evenodd" clip-rule="evenodd" d="M107.543,474.199c0,1.65-1.35,3-3,3H87.039c-1.65,0-3-1.35-3-3V458.04
				c0-1.65,1.35-3,3-3h17.504c1.65,0,3,1.35,3,3V474.199z"/>
		</g>
		<g>
			<path fill-rule="evenodd" clip-rule="evenodd" d="M315.791,474.199c0,1.65-1.35,3-3,3h-17.504c-1.65,0-3-1.35-3-3V458.04
				c0-1.65,1.35-3,3-3h17.504c1.65,0,3,1.35,3,3V474.199z"/>
		</g>
		<g>
			<path fill-rule="evenodd" clip-rule="evenodd" d="M79.543,474.199c0,1.65-1.35,3-3,3H59.039c-1.65,0-3-1.35-3-3V458.04
				c0-1.65,1.35-3,3-3h17.504c1.65,0,3,1.35,3,3V474.199z"/>
		</g>
		<g>
			<path fill-rule="evenodd" clip-rule="evenodd" d="M396.538,473.199c0,1.65-1.35,3-3,3h-7.666c-1.65,0-3-1.35-3-3v-5.079
				c0-1.65,1.35-3,3-3h7.666c1.65,0,3,1.35,3,3V473.199z"/>
		</g>
		<g>
			<path fill-rule="evenodd" clip-rule="evenodd" d="M379.538,473.199c0,1.65-1.35,3-3,3h-7.666c-1.65,0-3-1.35-3-3v-5.079
				c0-1.65,1.35-3,3-3h7.666c1.65,0,3,1.35,3,3V473.199z"/>
		</g>
		<g>
			<path fill-rule="evenodd" clip-rule="evenodd" d="M379.538,459.199c0,1.65-1.35,3-3,3h-7.666c-1.65,0-3-1.35-3-3v-5.079
				c0-1.65,1.35-3,3-3h7.666c1.65,0,3,1.35,3,3V459.199z"/>
		</g>
		<g>
			<path fill-rule="evenodd" clip-rule="evenodd" d="M362.538,473.199c0,1.65-1.35,3-3,3h-7.666c-1.65,0-3-1.35-3-3v-5.079
				c0-1.65,1.35-3,3-3h7.666c1.65,0,3,1.35,3,3V473.199z"/>
		</g>
		<g>
			<path fill-rule="evenodd" clip-rule="evenodd" d="M343.791,474.199c0,1.65-1.35,3-3,3h-17.504c-1.65,0-3-1.35-3-3V458.04
				c0-1.65,1.35-3,3-3h17.504c1.65,0,3,1.35,3,3V474.199z"/>
		</g>
		<g>
			<path fill-rule="evenodd" clip-rule="evenodd" d="M135.457,474.199c0,1.65-1.35,3-3,3h-17.504c-1.65,0-3-1.35-3-3V458.04
				c0-1.65,1.35-3,3-3h17.504c1.65,0,3,1.35,3,3V474.199z"/>
		</g>
		<g>
			<path fill-rule="evenodd" clip-rule="evenodd" d="M163.457,474.199c0,1.65-1.35,3-3,3h-17.504c-1.65,0-3-1.35-3-3V458.04
				c0-1.65,1.35-3,3-3h17.504c1.65,0,3,1.35,3,3V474.199z"/>
		</g>
		<g>
			<path fill-rule="evenodd" clip-rule="evenodd" d="M257.543,444.163c0,1.65-1.35,3-3,3h-17.504c-1.65,0-3-1.35-3-3v-16.159
				c0-1.65,1.35-3,3-3h17.504c1.65,0,3,1.35,3,3V444.163z"/>
		</g>
		<g>
			<path fill-rule="evenodd" clip-rule="evenodd" d="M285.543,444.163c0,1.65-1.35,3-3,3h-17.504c-1.65,0-3-1.35-3-3v-16.159
				c0-1.65,1.35-3,3-3h17.504c1.65,0,3,1.35,3,3V444.163z"/>
		</g>
		<g>
			<path fill-rule="evenodd" clip-rule="evenodd" d="M312.543,444.163c0,1.65-1.35,3-3,3h-17.504c-1.65,0-3-1.35-3-3v-16.159
				c0-1.65,1.35-3,3-3h17.504c1.65,0,3,1.35,3,3V444.163z"/>
		</g>
		<g>
			<path fill-rule="evenodd" clip-rule="evenodd" d="M339.543,444.163c0,1.65-1.35,3-3,3h-17.504c-1.65,0-3-1.35-3-3v-16.159
				c0-1.65,1.35-3,3-3h17.504c1.65,0,3,1.35,3,3V444.163z"/>
		</g>
		<g>
			<path fill-rule="evenodd" clip-rule="evenodd" d="M90.705,384.163c0,1.65-1.35,3-3,3H60.039c-1.65,0-3-1.35-3-3v-16.159
				c0-1.65,1.35-3,3-3h27.666c1.65,0,3,1.35,3,3V384.163z"/>
		</g>
		<g>
			<path fill-rule="evenodd" clip-rule="evenodd" d="M98.039,414.163c0,1.65-1.35,3-3,3h-35c-1.65,0-3-1.35-3-3v-16.159
				c0-1.65,1.35-3,3-3h35c1.65,0,3,1.35,3,3V414.163z"/>
		</g>
		<g>
			<path fill-rule="evenodd" clip-rule="evenodd" d="M112.039,444.163c0,1.65-1.35,3-3,3h-49c-1.65,0-3-1.35-3-3v-16.159
				c0-1.65,1.35-3,3-3h49c1.65,0,3,1.35,3,3V444.163z"/>
		</g>
		<g id="Layer_11">
		</g>
	</g>
</g>
</svg>
