<svg xmlns="http://www.w3.org/2000/svg" width="51.729" height="51.729" viewBox="0 0 51.729 51.729"><circle stroke="#000" stroke-miterlimit="10" cx="25.865" cy="25.865" r="25.365"/><g><path fill="#fff" d="M33.238 11.729c1.663 0 3.492.896 3.492 2.559v24.096c0 1.663-1.829 3.346-3.492 3.346h-13.93c-1.669 0-3.578-1.711-3.578-3.346v-24.096c0-1.635 1.909-2.559 3.578-2.559h14.422m-.492-1h-13.93c-2.218 0-4.578 1.34-4.578 3.559v24.096c0 2.218 2.36 4.346 4.578 4.346h13.93c2.218 0 4.492-2.128 4.492-4.346v-24.096c-.001-2.219-2.274-3.559-4.492-3.559zM32.729 15.729v18h-13v-18h13m1-1h-15v20h15v-20z"/><circle stroke="#fff" stroke-miterlimit="10" cx="26.241" cy="37.348" r="1.004" fill="none"/></g></svg>