<?xml version="1.0" encoding="utf-8"?>
<!-- Generator: Adobe Illustrator 16.0.3, SVG Export Plug-In . SVG Version: 6.00 Build 0)  -->
<!DOCTYPE svg PUBLIC "-//W3C//DTD SVG 1.1//EN" "http://www.w3.org/Graphics/SVG/1.1/DTD/svg11.dtd">
<svg version="1.1" xmlns="http://www.w3.org/2000/svg" xmlns:xlink="http://www.w3.org/1999/xlink" x="0px" y="0px" width="203.5px"
	 height="61.333px" viewBox="0 0 203.5 61.333" enable-background="new 0 0 203.5 61.333" xml:space="preserve">
<g id="Layer_1">
	<g>
		<path fill="#318779" stroke="#000000" stroke-miterlimit="10" d="M5.939,7.083"/>
		<path fill="#2A6C62" d="M40.5,20.805c0,14.455-17.535,33.544-19.25,33.544C19.153,54.35,2,35.26,2,20.805
			C2,6.349,10.619,2,21.25,2C31.882,2,40.5,7.591,40.5,20.805z"/>
		<path fill="#1B4D45" d="M40.5,20.805c0,14.455-17.535,33.544-19.25,33.544V1.999C31.882,2,40.5,7.591,40.5,20.805z"/>
		<path fill="#FFFFFF" d="M26.464,14c1.051,0,2.036,1.163,2.036,2.214v17.433c0,1.051-0.985,2.354-2.036,2.354H16.386
			c-1.057,0-1.886-1.32-1.886-2.354V16.214c0-1.033,0.829-2.214,1.886-2.214H26.5 M26.464,13H16.386
			c-1.604,0-2.886,1.609-2.886,3.214v17.433C13.5,35.25,14.782,37,16.386,37h10.078c1.605,0,3.036-1.748,3.036-3.354V16.214
			C29.5,14.609,28.069,13,26.464,13z M25.5,17v13h-8V17H25.5 M26.5,16h-10v15h10V16z"/>
		<circle fill="#FFFFFF" cx="21.403" cy="32.897" r="0.727"/>
	</g>
	<g>
		<path fill="#FFFFFF" d="M110.404,2.757c-7.016,0-12.696,5.682-12.696,12.691c0,7.014,5.683,12.697,12.696,12.697
			c7.01,0,12.693-5.683,12.693-12.697C123.098,8.438,117.414,2.757,110.404,2.757z M116.893,12.953c0,0.882-0.713,1.595-1.591,1.595
			c-0.879,0-1.594-0.713-1.594-1.595c0-0.878,0.715-1.591,1.594-1.591C116.18,11.361,116.893,12.075,116.893,12.953z M110.09,11.445
			c0.497-0.278,0.9-0.725,1.11-1.299c0.207-0.576,0.187-1.174-0.013-1.704l-0.102-0.276c-0.113-0.333-0.117-0.708,0.012-1.062
			c0.301-0.829,1.217-1.252,2.041-0.95h0.002c0.824,0.305,1.252,1.217,0.948,2.043c-0.134,0.357-0.375,0.638-0.682,0.818
			l-0.253,0.145c-0.498,0.275-0.896,0.728-1.107,1.301c-0.209,0.565-0.189,1.172,0.01,1.704l0.101,0.272
			c0.116,0.334,0.118,0.707-0.011,1.065c-0.305,0.828-1.219,1.247-2.041,0.948c-0.824-0.303-1.254-1.217-0.946-2.039
			c0.129-0.36,0.368-0.642,0.676-0.823L110.09,11.445z M104.523,12.412c0.129-0.36,0.369-0.642,0.676-0.823l0.255-0.144
			c0.496-0.278,0.899-0.725,1.108-1.299c0.209-0.576,0.188-1.174-0.01-1.704l-0.104-0.276c-0.113-0.333-0.115-0.708,0.014-1.062
			c0.301-0.829,1.215-1.252,2.041-0.95h0.002c0.823,0.305,1.25,1.217,0.947,2.043c-0.135,0.357-0.375,0.638-0.682,0.818L108.52,9.16
			c-0.5,0.275-0.897,0.728-1.108,1.301c-0.209,0.565-0.19,1.172,0.009,1.704l0.102,0.272c0.115,0.334,0.119,0.707-0.01,1.065
			c-0.305,0.828-1.22,1.247-2.043,0.948C104.646,14.147,104.218,13.234,104.523,12.412z M104.425,17.895
			c0-0.881,0.714-1.595,1.591-1.595c0.879,0,1.594,0.714,1.594,1.595c0,0.878-0.715,1.591-1.594,1.591
			C105.139,19.486,104.425,18.773,104.425,17.895z M111.229,19.403c-0.496,0.278-0.9,0.724-1.11,1.299
			c-0.208,0.576-0.187,1.173,0.011,1.704l0.104,0.276c0.113,0.333,0.115,0.708-0.014,1.062c-0.301,0.83-1.215,1.252-2.041,0.95
			h-0.002c-0.824-0.305-1.25-1.217-0.947-2.043c0.135-0.357,0.375-0.638,0.683-0.818l0.252-0.145
			c0.499-0.274,0.896-0.728,1.108-1.301c0.207-0.565,0.189-1.172-0.01-1.704l-0.101-0.272c-0.117-0.334-0.12-0.707,0.009-1.065
			c0.305-0.828,1.219-1.247,2.043-0.948c0.824,0.303,1.252,1.217,0.945,2.04c-0.129,0.36-0.369,0.642-0.676,0.823L111.229,19.403z
			 M116.807,18.437c-0.129,0.36-0.369,0.642-0.677,0.823l-0.254,0.144c-0.497,0.278-0.901,0.724-1.11,1.299
			c-0.207,0.576-0.187,1.173,0.012,1.704l0.103,0.276c0.113,0.333,0.116,0.708-0.013,1.062c-0.301,0.83-1.215,1.252-2.041,0.95
			h-0.002c-0.824-0.305-1.25-1.217-0.947-2.043c0.135-0.357,0.375-0.638,0.682-0.818l0.252-0.145c0.5-0.274,0.896-0.728,1.108-1.301
			c0.208-0.565,0.19-1.172-0.009-1.704l-0.102-0.272c-0.117-0.334-0.119-0.707,0.01-1.065c0.305-0.828,1.219-1.247,2.043-0.948
			C116.686,16.7,117.111,17.614,116.807,18.437z M62.665,33.987h3.648l2.207,7.313h0.031l2.177-7.313h3.662v11.11h-2.61l0.089-7.253
			l-0.03-0.03l-2.371,7.283H67.59l-2.373-7.283l-0.029,0.03l0.089,7.253h-2.612V33.987z M86.552,33.987h2.838v5h0.029l3.138-5h2.973
			l-3.679,5.54l3.919,5.57h-3.32l-3.031-4.804H89.39v4.804h-2.838V33.987z M95.966,33.987h2.837v11.109h-2.837V33.987z
			 M99.912,33.987h2.447l4.295,6.799l0.031-0.031l-0.121-6.768h2.718v11.11h-2.464l-4.233-6.573l-0.028,0.016l0.075,6.558h-2.72
			V33.987z M121.657,38.739c0.014,0.194,0.014,0.358,0.014,0.582c0,3.695-2.832,5.916-5.888,5.916c-3.338,0-5.854-2.607-5.854-5.781
			c0-3.293,2.65-5.68,5.899-5.68c2.637,0,4.901,1.773,5.512,3.904h-3.157c-0.433-0.775-1.234-1.43-2.43-1.43
			c-1.387,0-3.009,1.027-3.009,3.205c0,2.31,1.639,3.309,3.024,3.309c1.399,0,2.34-0.701,2.637-1.773h-3.293v-2.252H121.657z
			 M78.534,43.491l-0.586,1.606h-3.049l3.941-11.109h3.275l3.895,11.109h-3.078l-0.54-1.606H78.534z M79.313,41.241h2.328
			L80.5,36.668h-0.045L79.313,41.241z M85.51,46.265l-2.187,6.628l-1.527-6.628H79.18l-1.556,6.601l-2.117-6.601h-2.885
			l3.609,11.108h2.568l1.665-6.91h0.031l1.666,6.91h2.491l3.725-11.108H85.51z M89.81,55.768l-0.585,1.605h-3.048l3.939-11.108
			h3.275l3.895,11.108H94.21l-0.542-1.605H89.81z M90.591,53.517h2.326l-1.141-4.574h-0.045L90.591,53.517z M98.142,46.265
			l2.237,7.683h0.032l2.25-7.683h2.927l-3.724,11.108h-2.927l-3.709-11.108H98.142z M106.088,46.265h6.678v2.491h-3.957v1.726h3.539
			v2.493h-3.539v1.908h3.957v2.49h-6.678V46.265z M118.311,49.562c-0.06-0.373-0.148-1.074-1.013-1.074
			c-0.491,0-0.971,0.343-0.971,0.865c0,0.657,0.299,0.791,2.28,1.687c2.061,0.924,2.582,1.877,2.582,3.16
			c0,1.61-0.926,3.387-3.849,3.387c-3.192,0-3.983-2.09-3.983-3.504v-0.36h2.807c0,1.284,0.79,1.508,1.146,1.508
			c0.674,0,1.076-0.554,1.076-1.06c0-0.73-0.464-0.908-2.164-1.625c-0.773-0.313-2.697-1.088-2.697-3.162
			c0-2.072,2.013-3.25,3.861-3.25c1.088,0,2.268,0.402,2.982,1.252c0.654,0.805,0.699,1.551,0.73,2.178L118.311,49.562
			L118.311,49.562z"/>
	</g>
	<g display="none">
		<circle display="inline" fill="#010101" stroke="#010101" stroke-miterlimit="10" cx="173.865" cy="28.865" r="25.365"/>
		<path fill="#FFFFFF" d="M181.236,13.864c1.664,0,3.492,0.896,3.492,2.56V40.52c0,1.663-1.828,3.346-3.492,3.346h-13.93
			c-1.668,0-3.578-1.711-3.578-3.346V16.424c0-1.636,1.91-2.56,3.578-2.56h14.422 M181.236,12.864h-13.93
			c-2.218,0-4.578,1.34-4.578,3.56V40.52c0,2.218,2.36,4.346,4.578,4.346h13.93c2.22,0,4.492-2.128,4.492-4.346V16.424
			C185.729,14.204,183.456,12.864,181.236,12.864z M180.729,17.864v18h-13v-18H180.729 M181.729,16.864h-15v20h15V16.864z"/>
		<circle fill="none" stroke="#FFFFFF" stroke-miterlimit="10" cx="174.241" cy="39.483" r="1.004"/>
	</g>
</g>
<g id="Layer_2">
	<g>
		<path fill="#FFFFFF" d="M180.334,14.167c1.52,0,2.916,0.833,2.916,2.352v22.524c0,1.519-1.396,3.124-2.916,3.124h-13.021
			c-1.525,0-3.063-1.631-3.063-3.124V16.518c0-1.493,1.538-2.352,3.063-2.352h12.937 M180.334,13.167h-13.021
			c-2.074,0-4.063,1.278-4.063,3.352v22.524c0,2.073,1.989,4.124,4.063,4.124h13.021c2.073,0,3.916-2.051,3.916-4.124V16.518
			C184.25,14.445,182.407,13.167,180.334,13.167L180.334,13.167z"/>
	</g>
	<g>
		<path fill="#FFFFFF" d="M179.25,18.167v16h-11v-16H179.25 M180.25,17.167h-13v18h13V17.167L180.25,17.167z"/>
	</g>
	<circle fill="#FFFFFF" cx="173.346" cy="38.28" r="0.897"/>
</g>
</svg>
