<?xml version="1.0" encoding="utf-8"?>
<!-- Generator: Adobe Illustrator 17.1.0, SVG Export Plug-In . SVG Version: 6.00 Build 0)  -->
<!DOCTYPE svg PUBLIC "-//W3C//DTD SVG 1.1//EN" "http://www.w3.org/Graphics/SVG/1.1/DTD/svg11.dtd">
<svg version="1.1" id="Layer_1" xmlns="http://www.w3.org/2000/svg" xmlns:xlink="http://www.w3.org/1999/xlink" x="0px" y="0px"
	 width="279px" height="81px" viewBox="0 0 279 81" enable-background="new 0 0 279 81" xml:space="preserve">
<g id="Layer_1_1_">
	<g>
		<path fill="#318779" stroke="#000000" stroke-miterlimit="10" d="M5.9,7.1"/>
		<path fill="#2A6C62" d="M40.5,20.8c0,14.5-17.5,33.5-19.3,33.5C19.2,54.3,2,35.3,2,20.8C2,6.3,10.6,2,21.3,2
			C31.9,2,40.5,7.6,40.5,20.8z"/>
		<path fill="#1B4D45" d="M40.5,20.8c0,14.5-17.5,33.5-19.3,33.5V2C31.9,2,40.5,7.6,40.5,20.8z"/>
		<path fill="#FFFFFF" d="M26.5,14c1.1,0,2,1.2,2,2.2v17.4c0,1.1-1,2.4-2,2.4H16.4c-1.1,0-1.9-1.3-1.9-2.4V16.2c0-1,0.8-2.2,1.9-2.2
			L26.5,14 M26.5,13H16.4c-1.6,0-2.9,1.6-2.9,3.2v17.4c0,1.6,1.3,3.4,2.9,3.4h10.1c1.6,0,3-1.7,3-3.4V16.2
			C29.5,14.6,28.1,13,26.5,13z M25.5,17v13h-8V17H25.5 M26.5,16h-10v15h10V16z"/>
		<circle fill="#FFFFFF" cx="21.4" cy="32.9" r="0.7"/>
	</g>
	<g>
		<path fill="#FFFFFF" d="M110.4,2.8c-7,0-12.7,5.7-12.7,12.7c0,7,5.7,12.7,12.7,12.7c7,0,12.7-5.7,12.7-12.7
			C123.1,8.4,117.4,2.8,110.4,2.8z M116.9,13c0,0.9-0.7,1.6-1.6,1.6c-0.9,0-1.6-0.7-1.6-1.6c0-0.9,0.7-1.6,1.6-1.6
			C116.2,11.4,116.9,12.1,116.9,13z M110.1,11.4c0.5-0.3,0.9-0.7,1.1-1.3c0.2-0.6,0.2-1.2,0-1.7l-0.1-0.3c-0.1-0.3-0.1-0.7,0-1.1
			c0.3-0.8,1.2-1.3,2-0.9h0c0.8,0.3,1.3,1.2,0.9,2c-0.1,0.4-0.4,0.6-0.7,0.8l-0.3,0.1c-0.5,0.3-0.9,0.7-1.1,1.3
			c-0.2,0.6-0.2,1.2,0,1.7l0.1,0.3c0.1,0.3,0.1,0.7,0,1.1c-0.3,0.8-1.2,1.2-2,0.9c-0.8-0.3-1.3-1.2-0.9-2c0.1-0.4,0.4-0.6,0.7-0.8
			L110.1,11.4z M104.5,12.4c0.1-0.4,0.4-0.6,0.7-0.8l0.3-0.1c0.5-0.3,0.9-0.7,1.1-1.3c0.2-0.6,0.2-1.2,0-1.7l-0.1-0.3
			c-0.1-0.3-0.1-0.7,0-1.1c0.3-0.8,1.2-1.3,2-0.9h0c0.8,0.3,1.3,1.2,0.9,2c-0.1,0.4-0.4,0.6-0.7,0.8l-0.3,0.1
			c-0.5,0.3-0.9,0.7-1.1,1.3c-0.2,0.6-0.2,1.2,0,1.7l0.1,0.3c0.1,0.3,0.1,0.7,0,1.1c-0.3,0.8-1.2,1.2-2,0.9
			C104.6,14.1,104.2,13.2,104.5,12.4z M104.4,17.9c0-0.9,0.7-1.6,1.6-1.6c0.9,0,1.6,0.7,1.6,1.6c0,0.9-0.7,1.6-1.6,1.6
			C105.1,19.5,104.4,18.8,104.4,17.9z M111.2,19.4c-0.5,0.3-0.9,0.7-1.1,1.3c-0.2,0.6-0.2,1.2,0,1.7l0.1,0.3c0.1,0.3,0.1,0.7,0,1.1
			c-0.3,0.8-1.2,1.3-2,1h0c-0.8-0.3-1.3-1.2-0.9-2c0.1-0.4,0.4-0.6,0.7-0.8l0.3-0.1c0.5-0.3,0.9-0.7,1.1-1.3c0.2-0.6,0.2-1.2,0-1.7
			l-0.1-0.3c-0.1-0.3-0.1-0.7,0-1.1c0.3-0.8,1.2-1.2,2-0.9c0.8,0.3,1.3,1.2,0.9,2c-0.1,0.4-0.4,0.6-0.7,0.8L111.2,19.4z M116.8,18.4
			c-0.1,0.4-0.4,0.6-0.7,0.8l-0.3,0.1c-0.5,0.3-0.9,0.7-1.1,1.3c-0.2,0.6-0.2,1.2,0,1.7l0.1,0.3c0.1,0.3,0.1,0.7,0,1.1
			c-0.3,0.8-1.2,1.3-2,1h0c-0.8-0.3-1.3-1.2-0.9-2c0.1-0.4,0.4-0.6,0.7-0.8l0.3-0.1c0.5-0.3,0.9-0.7,1.1-1.3c0.2-0.6,0.2-1.2,0-1.7
			l-0.1-0.3c-0.1-0.3-0.1-0.7,0-1.1c0.3-0.8,1.2-1.2,2-0.9C116.7,16.7,117.1,17.6,116.8,18.4z M62.7,34h3.6l2.2,7.3h0l2.2-7.3h3.7
			v11.1h-2.6l0.1-7.3l0,0l-2.4,7.3h-1.9l-2.4-7.3l0,0l0.1,7.3h-2.6C62.7,45.1,62.7,34,62.7,34z M86.6,34h2.8v5h0l3.1-5h3l-3.7,5.5
			l3.9,5.6h-3.3l-3-4.8h0v4.8h-2.8V34z M96,34h2.8v11.1H96V34z M99.9,34h2.4l4.3,6.8l0,0l-0.1-6.8h2.7v11.1h-2.5l-4.2-6.6l0,0
			l0.1,6.6h-2.7C99.9,45.1,99.9,34,99.9,34z M121.7,38.7c0,0.2,0,0.4,0,0.6c0,3.7-2.8,5.9-5.9,5.9c-3.3,0-5.9-2.6-5.9-5.8
			c0-3.3,2.7-5.7,5.9-5.7c2.6,0,4.9,1.8,5.5,3.9h-3.2c-0.4-0.8-1.2-1.4-2.4-1.4c-1.4,0-3,1-3,3.2c0,2.3,1.6,3.3,3,3.3
			c1.4,0,2.3-0.7,2.6-1.8h-3.3v-2.3C115.1,38.7,121.7,38.7,121.7,38.7z M78.5,43.5l-0.6,1.6h-3L78.8,34h3.3L86,45.1h-3.1l-0.5-1.6
			H78.5z M79.3,41.2h2.3l-1.1-4.6h0L79.3,41.2z M85.5,46.3l-2.2,6.6l-1.5-6.6h-2.6l-1.6,6.6l-2.1-6.6h-2.9l3.6,11.1h2.6l1.7-6.9h0
			l1.7,6.9h2.5l3.7-11.1H85.5z M89.8,55.8l-0.6,1.6h-3l3.9-11.1h3.3l3.9,11.1h-3.1l-0.5-1.6H89.8z M90.6,53.5h2.3l-1.1-4.6h0
			L90.6,53.5z M98.1,46.3l2.2,7.7h0l2.3-7.7h2.9l-3.7,11.1h-2.9l-3.7-11.1H98.1z M106.1,46.3h6.7v2.5h-4v1.7h3.5V53h-3.5v1.9h4v2.5
			h-6.7V46.3z M118.3,49.6c-0.1-0.4-0.1-1.1-1-1.1c-0.5,0-1,0.3-1,0.9c0,0.7,0.3,0.8,2.3,1.7c2.1,0.9,2.6,1.9,2.6,3.2
			c0,1.6-0.9,3.4-3.8,3.4c-3.2,0-4-2.1-4-3.5v-0.4h2.8c0,1.3,0.8,1.5,1.1,1.5c0.7,0,1.1-0.6,1.1-1.1c0-0.7-0.5-0.9-2.2-1.6
			c-0.8-0.3-2.7-1.1-2.7-3.2c0-2.1,2-3.3,3.9-3.3c1.1,0,2.3,0.4,3,1.3c0.7,0.8,0.7,1.6,0.7,2.2L118.3,49.6L118.3,49.6z"/>
	</g>
	<g display="none">
		<circle display="inline" fill="#010101" stroke="#010101" stroke-miterlimit="10" cx="173.9" cy="28.9" r="25.4"/>
		<path display="inline" fill="#FFFFFF" d="M181.2,13.9c1.7,0,3.5,0.9,3.5,2.6v24.1c0,1.7-1.8,3.3-3.5,3.3h-13.9
			c-1.7,0-3.6-1.7-3.6-3.3V16.4c0-1.6,1.9-2.6,3.6-2.6h14.4 M181.2,12.9h-13.9c-2.2,0-4.6,1.3-4.6,3.6v24.1c0,2.2,2.4,4.3,4.6,4.3
			h13.9c2.2,0,4.5-2.1,4.5-4.3V16.4C185.7,14.2,183.5,12.9,181.2,12.9z M180.7,17.9v18h-13v-18L180.7,17.9 M181.7,16.9h-15v20h15
			V16.9z"/>
		<circle display="inline" fill="none" stroke="#FFFFFF" stroke-miterlimit="10" cx="174.2" cy="39.5" r="1"/>
	</g>
</g>
<g id="Layer_2">
	<g>
		<path fill="#FFFFFF" d="M180.3,14.2c1.5,0,2.9,0.8,2.9,2.4V39c0,1.5-1.4,3.1-2.9,3.1h-13c-1.5,0-3.1-1.6-3.1-3.1V16.5
			c0-1.5,1.5-2.4,3.1-2.4L180.3,14.2 M180.3,13.2h-13c-2.1,0-4.1,1.3-4.1,3.4V39c0,2.1,2,4.1,4.1,4.1h13c2.1,0,3.9-2.1,3.9-4.1V16.5
			C184.3,14.4,182.4,13.2,180.3,13.2L180.3,13.2z"/>
	</g>
	<g>
		<path fill="#FFFFFF" d="M179.3,18.2v16h-11v-16H179.3 M180.3,17.2h-13v18h13V17.2L180.3,17.2z"/>
	</g>
	<circle fill="#FFFFFF" cx="173.3" cy="38.3" r="0.9"/>
</g>
<path fill="#0099FF" d="M271.7,8.3c-9.8-9.8-25.6-9.8-35.4,0c-9.8,9.8-9.8,25.6,0,35.4c0,0,17.7,17.3,17.7,37.3
	c0-20,17.7-37.3,17.7-37.3C281.4,33.9,281.4,18.1,271.7,8.3z"/>
<path fill="#FFFFFF" d="M258,10h-8c-8,0-8,0-8,8v16c0,8,0,8,8,8h8c8,0,8,0,8-8V18C266,10,266,10,258,10z M262,14v20h-16V14"/>
<rect x="252.1" y="36.1" fill="#0099FF" width="3.8" height="3.8"/>
</svg>
