<svg version="1" xmlns="http://www.w3.org/2000/svg" width="215" height="321.2" viewBox="0 0 215 321.2"><path d="M199.5 1.4h-184.7c-7.9 0-14.3 6.4-14.3 14.3v289.7c0 7.9 6.4 14.4 14.4 14.4h184.6c7.9 0 14.4-6.4 14.4-14.4v-289.7c-.1-7.9-6.5-14.3-14.4-14.3zm-92.3 12.8c1.3 0 2.3 1 2.3 2.3 0 1.3-1 2.3-2.3 2.3-1.3 0-2.3-1-2.3-2.3 0-1.3 1-2.3 2.3-2.3zm0 299c-4.5 0-8.2-3.7-8.2-8.2s3.7-8.2 8.2-8.2c4.5 0 8.2 3.7 8.2 8.2s-3.7 8.2-8.2 8.2zm86.9-26.7h-174v-257.7h174v257.7z"/><circle fill="#131313" cx="107.2" cy="305.2" r="8.9"/><path fill="#333" d="M109 308.4h-3.7c-.7 0-1.3-.6-1.3-1.3v-3.9c0-.7.6-1.3 1.3-1.3h3.7c.7 0 1.3.6 1.3 1.3v3.9c0 .7-.6 1.3-1.3 1.3zm-3.7-5.9c-.4 0-.8.3-.8.8v3.9c0 .4.3.8.8.8h3.7c.4 0 .8-.3.8-.8v-3.9c0-.4-.3-.8-.8-.8h-3.7z"/><circle fill="#252525" cx="107.1" cy="16.2" r="2.5"/><path fill="#262626" d="M199.8 321.2h-184.6c-8.4 0-15.2-6.8-15.2-15.2v-290.8c0-8.4 6.8-15.2 15.2-15.2h184.6c8.4 0 15.2 6.8 15.2 15.2v290.7c0 8.4-6.8 15.3-15.2 15.3zm-184.6-319.6c-7.5 0-13.6 6.1-13.6 13.6v290.7c0 7.5 6.1 13.6 13.6 13.6h184.6c7.5 0 13.6-6.1 13.6-13.6v-290.7c0-7.5-6.1-13.6-13.6-13.6h-184.6z"/></svg>