<svg xmlns="http://www.w3.org/2000/svg" width="214.993" height="321.151" viewBox="0 0 214.993 321.151"><g><path d="M199.461 1.359h-184.62c-7.941 0-14.377 6.438-14.377 14.377v289.678c0 7.94 6.436 14.377 14.377 14.377h184.62c7.94 0 14.377-6.437 14.377-14.377v-289.677c0-7.94-6.437-14.378-14.377-14.378zm-92.31 12.861c1.25 0 2.264 1.014 2.264 2.264 0 1.251-1.014 2.265-2.264 2.265-1.252 0-2.265-1.014-2.265-2.265.001-1.25 1.013-2.264 2.265-2.264zm-.001 298.971c-4.514 0-8.174-3.66-8.174-8.174 0-4.514 3.66-8.173 8.174-8.173 4.515 0 8.175 3.659 8.175 8.173s-3.66 8.174-8.175 8.174zm86.982-26.731h-173.963v-257.642h173.963v257.642z"/><circle fill="#131313" cx="107.151" cy="305.155" r="8.913"/><path fill="#333" d="M108.999 308.391h-3.697c-.715 0-1.297-.582-1.297-1.297v-3.878c0-.714.582-1.297 1.297-1.297h3.697c.715 0 1.297.583 1.297 1.297v3.878c0 .716-.582 1.297-1.297 1.297zm-3.697-5.932c-.418 0-.758.339-.758.757v3.878c0 .417.34.757.758.757h3.697c.418 0 .758-.339.758-.757v-3.878c0-.417-.34-.757-.758-.757h-3.697z"/><circle fill="#252525" cx="107.15" cy="16.205" r="2.544"/><path fill="#262626" d="M199.808 321.151h-184.621c-8.375 0-15.187-6.835-15.187-15.238v-290.675c0-8.402 6.812-15.238 15.187-15.238h184.621c8.373 0 15.186 6.836 15.186 15.238v290.675c-.001 8.403-6.813 15.238-15.186 15.238zm-184.621-319.526c-7.481 0-13.568 6.106-13.568 13.613v290.675c0 7.507 6.087 13.614 13.568 13.614h184.621c7.48 0 13.567-6.107 13.567-13.614v-290.675c0-7.507-6.087-13.613-13.567-13.613h-184.621z"/></g></svg>