<svg xmlns="http://www.w3.org/2000/svg" width="106.867" height="224.853" viewBox="0 0 106.867 224.853"><g><path fill="#D7D7D8" d="M61.305 17.277h-15.239c-1.22 0-2.209 1.053-2.209 2.353s.989 2.354 2.209 2.354h15.238c1.22 0 2.209-1.054 2.209-2.354s-.989-2.353-2.208-2.353z"/><path fill="#EBEBEB" d="M46.35 20.612h14.77c.502 0 .906-.405.906-.906s-.404-.906-.906-.906h-14.77c-.501 0-.907.405-.907.906-.001.501.406.906.907.906zM53.734 12.736c.805 0 1.458-.653 1.458-1.458v-.091c0-.804-.653-1.458-1.458-1.458-.804 0-1.457.654-1.457 1.458v.091c0 .805.654 1.458 1.457 1.458zM105.024 15.242c0-7.093-5.29-12.843-12.844-12.843h-76.892c-7.501 0-12.844 5.333-12.844 12.843v194.878c0 7.093 5.75 12.844 12.844 12.844h76.893c7.093 0 12.844-5.751 12.844-12.844v-194.878zm-53.819-4.054c0-1.395 1.135-2.529 2.529-2.529s2.529 1.134 2.529 2.529v.091c0 1.395-1.135 2.529-2.529 2.529s-2.529-1.135-2.529-2.529v-.091zm-5.127 6.253h15.313c1.226 0 2.221.993 2.221 2.219 0 1.227-.995 2.22-2.221 2.22h-15.313c-1.227 0-2.221-.993-2.221-2.22 0-1.225.995-2.219 2.221-2.219zm7.656 200.919c-5.38 0-9.742-4.361-9.742-9.742 0-5.381 4.362-9.742 9.742-9.742 5.381 0 9.742 4.361 9.742 9.742.001 5.381-4.361 9.742-9.742 9.742zm41.291-29.054h-83.239v-158.318h83.239v158.318z"/><circle fill="#EBEBEB" cx="53.54" cy="208.699" r="9.288"/><path fill="#D7D7D8" d="M53.607 14.021c-1.521 0-2.759-1.238-2.759-2.759v-.099c0-1.521 1.237-2.758 2.759-2.758s2.759 1.237 2.759 2.758v.099c0 1.521-1.237 2.759-2.759 2.759zm0-4.448c-.877 0-1.59.713-1.59 1.589v.099c0 .877.713 1.59 1.59 1.59s1.59-.713 1.59-1.59v-.099c0-.876-.713-1.589-1.59-1.589z"/><path fill="#CFCECE" d="M53.734 200.05c4.781 0 8.672 3.889 8.672 8.67 0 4.78-3.891 8.67-8.672 8.67-4.78 0-8.67-3.89-8.67-8.67 0-4.781 3.89-8.67 8.67-8.67m0-1.071c-5.38 0-9.742 4.361-9.742 9.742 0 5.38 4.362 9.741 9.742 9.741 5.381 0 9.743-4.361 9.743-9.741.001-5.381-4.362-9.742-9.743-9.742zM91.881 2.144c7.553 0 12.843 5.75 12.843 12.843v194.879c0 7.093-5.75 12.844-12.843 12.844h-76.894c-7.093 0-12.844-5.751-12.844-12.844v-194.88c0-7.51 5.343-12.843 12.844-12.843h76.894m0-2.143h-76.894c-8.684 0-14.987 6.303-14.987 14.986v194.879c0 8.264 6.724 14.987 14.987 14.987h76.894c8.264 0 14.986-6.724 14.986-14.987v-194.879c0-4.045-1.491-7.802-4.198-10.578-2.773-2.843-6.605-4.408-10.788-4.408z"/></g></svg>